<svg width="40" height="40" viewBox="0 0 75 75" fill="none" xmlns="http://www.w3.org/2000/svg">
<rect width="75" height="75" rx="15" fill="#9C87D8"/>
<path d="M22.7703 19.088C23.5763 19.088 24.1963 19.026 25.1883 19.026C25.9323 19.026 26.3663 19.46 26.3663 20.266C26.3663 49.096 26.3663 52.258 26.3043 55.544C26.3043 56.288 25.7463 56.722 25.1263 56.722C24.1343 56.722 23.3903 56.66 22.5843 56.66C22.5223 56.66 22.5223 56.66 22.4603 56.66C21.2203 56.66 20.6623 57.59 20.6003 58.458C20.6003 58.892 20.9723 60.38 22.5843 60.318C24.3823 60.194 26.8003 60.194 29.5283 60.194C33.9303 60.194 39.2003 60.256 44.0363 60.318C44.0983 60.318 44.2223 60.318 44.2843 60.318C50.1123 60.318 51.6003 57.776 53.2743 52.444C53.3363 52.196 53.3983 51.948 53.3983 51.7C53.3983 50.522 52.4063 49.84 51.4763 49.84C50.7323 49.84 49.9883 50.274 49.7403 51.204C48.5623 56.288 46.5163 56.784 43.9743 56.846C42.5483 56.908 40.3163 56.908 38.0843 56.908C35.1083 56.908 32.1943 56.908 31.4503 56.846C30.6443 56.784 30.0863 56.288 30.0863 55.482C30.0243 51.576 30.0243 43.764 30.0243 39.548C30.0243 38.928 30.3343 38.742 30.8923 38.742C32.0703 38.68 33.4963 38.68 34.9843 38.68C37.0303 38.68 39.0763 38.68 40.5023 38.742C41.2463 38.742 41.7423 39.362 41.7423 40.044C41.7423 41.098 41.7423 41.656 41.6803 42.586C41.6803 42.648 41.6803 42.648 41.6803 42.71C41.6803 43.888 42.5483 44.446 43.3543 44.446C43.8503 44.446 45.1523 44.26 45.0903 42.586C45.0283 40.664 44.9663 38.618 44.9663 36.634C44.9663 34.96 45.0283 33.348 45.0903 31.86C45.0903 31.798 45.0903 31.798 45.0903 31.736C45.0903 30.558 44.2843 30 43.4163 30C42.6723 30 41.6183 30.434 41.6803 31.86C41.6803 32.666 41.7423 33.162 41.7423 34.154C41.7423 35.518 40.9363 35.518 36.5963 35.518C34.3643 35.518 32.0083 35.518 30.9543 35.456C30.3343 35.456 30.0243 35.146 30.0243 34.588C30.0863 30.744 30.0863 22.188 30.1483 20.328C30.1483 19.398 30.7063 18.964 31.5123 18.964C32.0703 18.964 32.9383 18.964 34.0543 18.964C45.2763 18.964 46.3923 18.964 47.2603 21.382C47.6323 22.436 48.0043 23.304 48.1903 24.296C48.3763 25.288 49.1823 25.784 49.9263 25.784C50.9183 25.784 51.9103 25.102 51.9103 23.924C51.9103 23.428 51.2903 21.444 50.7323 20.018C49.4923 16.67 46.9503 15.616 43.0443 15.616C38.8903 15.678 34.6743 15.74 30.4583 15.74C27.8543 15.74 25.3123 15.74 22.7703 15.616H22.7083C21.4683 15.616 20.7863 16.484 20.8483 17.352C20.8483 18.22 21.4683 19.088 22.7083 19.088H22.7703Z" fill="white"/>
</svg>
